<?xml version="1.0" encoding="UTF-8" standalone="no"?>
<!DOCTYPE svg PUBLIC "-//W3C//DTD SVG 1.1//EN"
 "http://www.w3.org/Graphics/SVG/1.1/DTD/svg11.dtd">
<!-- Generated by graphviz version 2.40.1 (20161225.0304)
 -->
<!-- Title: G Pages: 1 -->
<svg width="456pt" height="276pt"
 viewBox="0.00 0.00 456.00 276.00" xmlns="http://www.w3.org/2000/svg" xmlns:xlink="http://www.w3.org/1999/xlink">
<g id="graph0" class="graph" transform="scale(1 1) rotate(0) translate(4 272)">
<title>G</title>
<polygon fill="#ffffff" stroke="transparent" points="-4,4 -4,-272 452,-272 452,4 -4,4"/>
<g id="clust1" class="cluster">
<title>cluster1</title>
<polygon fill="none" stroke="#000000" points="8,-8 8,-132 440,-132 440,-8 8,-8"/>
</g>
<!-- / -->
<g id="node1" class="node">
<title>/</title>
<polygon fill="none" stroke="#000000" points="217,-196 163,-196 163,-160 217,-160 217,-196"/>
<text text-anchor="middle" x="190" y="-174.3" font-family="Times,serif" font-size="14.00" fill="#000000">/</text>
</g>
<!-- /polls/:poll_id -->
<g id="node2" class="node">
<title>/polls/:poll_id</title>
<polygon fill="none" stroke="#000000" points="273.5,-124 162.5,-124 162.5,-88 273.5,-88 273.5,-124"/>
<text text-anchor="middle" x="218" y="-102.3" font-family="Times,serif" font-size="14.00" fill="#000000">/polls/:poll_id</text>
</g>
<!-- /&#45;&gt;/polls/:poll_id -->
<g id="edge3" class="edge">
<title>/&#45;&gt;/polls/:poll_id</title>
<path fill="none" stroke="#000000" d="M197.0656,-159.8314C200.126,-151.9617 203.7779,-142.5712 207.1682,-133.8533"/>
<polygon fill="#000000" stroke="#000000" points="210.4768,-135.0019 210.8393,-124.4133 203.9527,-132.4647 210.4768,-135.0019"/>
</g>
<!-- /polls/:poll_id/votes/new -->
<g id="node3" class="node">
<title>/polls/:poll_id/votes/new</title>
<polygon fill="none" stroke="#000000" stroke-dasharray="5,2" points="204,-52 16,-52 16,-16 204,-16 204,-52"/>
<text text-anchor="middle" x="110" y="-30.3" font-family="Times,serif" font-size="14.00" fill="#000000">/polls/:poll_id/votes/new</text>
</g>
<!-- /polls/:poll_id&#45;&gt;/polls/:poll_id/votes/new -->
<g id="edge4" class="edge">
<title>/polls/:poll_id&#45;&gt;/polls/:poll_id/votes/new</title>
<path fill="none" stroke="#000000" stroke-dasharray="1,5" d="M184.7946,-87.8314C170.3557,-78.7927 153.6369,-67.7476 139.6235,-58.0198"/>
<polygon fill="#000000" stroke="#000000" points="141.4861,-55.0509 131.2924,-52.1628 137.4602,-60.7773 141.4861,-55.0509"/>
</g>
<!-- /polls/:poll_id/votes/:id/edit -->
<g id="node4" class="node">
<title>/polls/:poll_id/votes/:id/edit</title>
<polygon fill="none" stroke="#000000" stroke-dasharray="5,2" points="431.5,-52 222.5,-52 222.5,-16 431.5,-16 431.5,-52"/>
<text text-anchor="middle" x="327" y="-30.3" font-family="Times,serif" font-size="14.00" fill="#000000">/polls/:poll_id/votes/:id/edit</text>
</g>
<!-- /polls/:poll_id&#45;&gt;/polls/:poll_id/votes/:id/edit -->
<g id="edge6" class="edge">
<title>/polls/:poll_id&#45;&gt;/polls/:poll_id/votes/:id/edit</title>
<path fill="none" stroke="#000000" stroke-dasharray="1,5" d="M239.5529,-87.8314C252.4764,-78.7074 269.2383,-67.539 284.6633,-57.7449"/>
<polygon fill="#000000" stroke="#000000" points="286.9446,-60.4452 293.5517,-52.1628 283.2217,-54.5172 286.9446,-60.4452"/>
</g>
<!-- /polls/:poll_id/votes/new&#45;&gt;/polls/:poll_id -->
<g id="edge5" class="edge">
<title>/polls/:poll_id/votes/new&#45;&gt;/polls/:poll_id</title>
<path fill="none" stroke="#000000" stroke-dasharray="1,5" d="M143.1961,-52.1628C157.634,-61.2007 174.3529,-72.2456 188.3675,-81.9739"/>
<polygon fill="#000000" stroke="#000000" points="186.5058,-84.9435 196.6994,-87.8314 190.5316,-79.2169 186.5058,-84.9435"/>
</g>
<!-- /polls/:poll_id/votes/:id/edit&#45;&gt;/polls/:poll_id -->
<g id="edge7" class="edge">
<title>/polls/:poll_id/votes/:id/edit&#45;&gt;/polls/:poll_id</title>
<path fill="none" stroke="#000000" stroke-dasharray="1,5" d="M305.4553,-52.1628C292.5334,-61.2859 275.7721,-72.4541 260.3465,-82.2489"/>
<polygon fill="#000000" stroke="#000000" points="258.0647,-79.5489 251.4577,-87.8314 261.7876,-85.4768 258.0647,-79.5489"/>
</g>
<!-- (outer) -->
<g id="node5" class="node">
<title>(outer)</title>
<ellipse fill="none" stroke="#000000" cx="217" cy="-250" rx="42.4939" ry="18"/>
<text text-anchor="middle" x="217" y="-246.3" font-family="Times,serif" font-size="14.00" fill="#000000">(outer)</text>
</g>
<!-- (outer)&#45;&gt;/ -->
<g id="edge1" class="edge">
<title>(outer)&#45;&gt;/</title>
<path fill="none" stroke="#000000" d="M210.3258,-232.2022C207.3305,-224.2146 203.7267,-214.6045 200.3908,-205.7087"/>
<polygon fill="#000000" stroke="#000000" points="203.5734,-204.2275 196.7849,-196.0931 197.0191,-206.6854 203.5734,-204.2275"/>
</g>
<!-- (outer)&#45;&gt;/polls/:poll_id -->
<g id="edge2" class="edge">
<title>(outer)&#45;&gt;/polls/:poll_id</title>
<path fill="none" stroke="#000000" d="M220.8413,-231.6001C222.8166,-221.2025 225.0123,-207.9346 226,-196 227.3197,-180.0545 227.1756,-175.9568 226,-160 225.3831,-151.6264 224.2351,-142.5812 222.9974,-134.3322"/>
<polygon fill="#000000" stroke="#000000" points="226.4477,-133.7428 221.415,-124.4196 219.5352,-134.8463 226.4477,-133.7428"/>
</g>
</g>

<g transform="translate(0.000000,17.000000) scale(0.100000,-0.100000)"
fill="#000000" stroke="none">
<path d="M21 157 c-29 -35 -16 -97 20 -97 15 0 19 -5 15 -16 -3 -9 -6 -20 -6
-25 0 -5 -4 -9 -10 -9 -14 0 -12 27 3 33 6 3 2 6 -10 6 -30 1 -31 -35 -3 -44
28 -9 47 9 55 51 3 20 9 42 12 50 3 8 -1 14 -11 14 -9 0 -16 -8 -16 -19 0 -26
-15 -34 -30 -16 -13 16 -6 48 16 70 14 13 13 15 -4 15 -11 0 -25 -6 -31 -13z"/>
<path d="M80 150 c0 -13 5 -20 13 -17 6 2 12 10 12 17 0 7 -6 15 -12 18 -8 2
-13 -5 -13 -18z"/>
<path d="M347 164 c-13 -13 -7 -24 14 -24 11 0 19 5 17 12 -5 14 -22 21 -31
12z"/>
<path d="M103 85 c-9 -40 -8 -45 8 -45 13 0 19 9 21 33 2 24 7 31 21 29 10 -2
17 3 17 13 0 10 -9 15 -28 15 -26 0 -30 -5 -39 -45z"/>
<path d="M175 101 c-24 -48 -13 -59 64 -60 63 -1 69 1 79 25 15 31 15 64 1 64
-6 0 -8 -8 -5 -18 4 -10 -1 -27 -10 -38 -14 -18 -15 -17 -9 19 5 29 3 37 -9
37 -9 0 -18 -13 -22 -35 -3 -19 -10 -35 -14 -35 -4 0 -4 16 0 35 8 35 8 35
-26 35 -27 0 -36 -6 -49 -29z m47 -6 c-5 -28 -22 -44 -22 -21 0 21 11 46 20
46 4 0 5 -11 2 -25z"/>
<path d="M340 116 c0 -7 -3 -28 -6 -45 -6 -26 -3 -31 13 -31 10 0 25 6 32 12
11 10 13 10 7 1 -5 -9 3 -13 28 -13 25 0 36 4 36 15 0 8 -4 15 -10 15 -5 0
-10 -4 -10 -10 0 -5 -5 -10 -11 -10 -6 0 -2 12 9 28 36 51 36 52 -2 52 -25 0
-36 -4 -36 -15 0 -8 5 -15 10 -15 6 0 10 5 10 12 0 6 3 9 6 6 9 -10 -19 -46
-39 -52 -17 -4 -18 -1 -13 30 6 27 4 34 -9 34 -8 0 -15 -6 -15 -14z"/>
<path d="M472 118 c-7 -7 -12 -27 -12 -46 0 -30 2 -33 27 -30 17 2 32 12 39
27 7 13 18 28 26 33 10 8 9 8 -4 4 -12 -3 -18 0 -18 9 0 18 -41 20 -58 3z m29
-51 c-13 -13 -15 11 -4 40 7 16 8 15 11 -6 2 -13 -1 -28 -7 -34z"/>
</g>
</svg>
