<?xml version="1.0" encoding="UTF-8" standalone="no"?>
<!DOCTYPE svg PUBLIC "-//W3C//DTD SVG 1.1//EN"
 "http://www.w3.org/Graphics/SVG/1.1/DTD/svg11.dtd">
<!-- Generated by graphviz version 2.40.1 (20161225.0304)
 -->
<!-- Title: G Pages: 1 -->
<svg width="424pt" height="260pt"
 viewBox="0.00 0.00 423.50 260.00" xmlns="http://www.w3.org/2000/svg" xmlns:xlink="http://www.w3.org/1999/xlink">
<g id="graph0" class="graph" transform="scale(1 1) rotate(0) translate(4 256)">
<title>G</title>
<polygon fill="#ffffff" stroke="transparent" points="-4,4 -4,-256 419.5,-256 419.5,4 -4,4"/>
<!-- / -->
<g id="node1" class="node">
<title>/</title>
<polygon fill="none" stroke="#000000" points="202,-180 148,-180 148,-144 202,-144 202,-180"/>
<text text-anchor="middle" x="175" y="-158.3" font-family="Times,serif" font-size="14.00" fill="#000000">/</text>
</g>
<!-- /polls/:poll_id -->
<g id="node2" class="node">
<title>/polls/:poll_id</title>
<polygon fill="none" stroke="#000000" points="257.5,-108 146.5,-108 146.5,-72 257.5,-72 257.5,-108"/>
<text text-anchor="middle" x="202" y="-86.3" font-family="Times,serif" font-size="14.00" fill="#000000">/polls/:poll_id</text>
</g>
<!-- /&#45;&gt;/polls/:poll_id -->
<g id="edge3" class="edge">
<title>/&#45;&gt;/polls/:poll_id</title>
<path fill="none" stroke="#000000" d="M181.8132,-143.8314C184.7644,-135.9617 188.2858,-126.5712 191.555,-117.8533"/>
<polygon fill="#000000" stroke="#000000" points="194.8609,-119.0055 195.095,-108.4133 188.3066,-116.5476 194.8609,-119.0055"/>
</g>
<!-- /polls/:poll_id/votes/new -->
<g id="node3" class="node">
<title>/polls/:poll_id/votes/new</title>
<polygon fill="none" stroke="#000000" points="188,-36 0,-36 0,0 188,0 188,-36"/>
<text text-anchor="middle" x="94" y="-14.3" font-family="Times,serif" font-size="14.00" fill="#000000">/polls/:poll_id/votes/new</text>
</g>
<!-- /polls/:poll_id&#45;&gt;/polls/:poll_id/votes/new -->
<g id="edge4" class="edge">
<title>/polls/:poll_id&#45;&gt;/polls/:poll_id/votes/new</title>
<path fill="none" stroke="#000000" d="M168.7946,-71.8314C154.3557,-62.7927 137.6369,-51.7476 123.6235,-42.0198"/>
<polygon fill="#000000" stroke="#000000" points="125.4861,-39.0509 115.2924,-36.1628 121.4602,-44.7773 125.4861,-39.0509"/>
</g>
<!-- /polls/:poll_id/votes/:id/edit -->
<g id="node4" class="node">
<title>/polls/:poll_id/votes/:id/edit</title>
<polygon fill="none" stroke="#000000" points="415.5,-36 206.5,-36 206.5,0 415.5,0 415.5,-36"/>
<text text-anchor="middle" x="311" y="-14.3" font-family="Times,serif" font-size="14.00" fill="#000000">/polls/:poll_id/votes/:id/edit</text>
</g>
<!-- /polls/:poll_id&#45;&gt;/polls/:poll_id/votes/:id/edit -->
<g id="edge6" class="edge">
<title>/polls/:poll_id&#45;&gt;/polls/:poll_id/votes/:id/edit</title>
<path fill="none" stroke="#000000" d="M223.5529,-71.8314C236.4764,-62.7074 253.2383,-51.539 268.6633,-41.7449"/>
<polygon fill="#000000" stroke="#000000" points="270.9446,-44.4452 277.5517,-36.1628 267.2217,-38.5172 270.9446,-44.4452"/>
</g>
<!-- /polls/:poll_id/votes/new&#45;&gt;/polls/:poll_id -->
<g id="edge5" class="edge">
<title>/polls/:poll_id/votes/new&#45;&gt;/polls/:poll_id</title>
<path fill="none" stroke="#000000" d="M127.1961,-36.1628C141.634,-45.2007 158.3529,-56.2456 172.3675,-65.9739"/>
<polygon fill="#000000" stroke="#000000" points="170.5058,-68.9435 180.6994,-71.8314 174.5316,-63.2169 170.5058,-68.9435"/>
</g>
<!-- /polls/:poll_id/votes/:id/edit&#45;&gt;/polls/:poll_id -->
<g id="edge7" class="edge">
<title>/polls/:poll_id/votes/:id/edit&#45;&gt;/polls/:poll_id</title>
<path fill="none" stroke="#000000" d="M289.4553,-36.1628C276.5334,-45.2859 259.7721,-56.4541 244.3465,-66.2489"/>
<polygon fill="#000000" stroke="#000000" points="242.0647,-63.5489 235.4577,-71.8314 245.7876,-69.4768 242.0647,-63.5489"/>
</g>
<!-- (outer) -->
<g id="node5" class="node">
<title>(outer)</title>
<ellipse fill="none" stroke="#000000" cx="202" cy="-234" rx="42.4939" ry="18"/>
<text text-anchor="middle" x="202" y="-230.3" font-family="Times,serif" font-size="14.00" fill="#000000">(outer)</text>
</g>
<!-- (outer)&#45;&gt;/ -->
<g id="edge1" class="edge">
<title>(outer)&#45;&gt;/</title>
<path fill="none" stroke="#000000" d="M195.3258,-216.2022C192.3305,-208.2146 188.7267,-198.6045 185.3908,-189.7087"/>
<polygon fill="#000000" stroke="#000000" points="188.5734,-188.2275 181.7849,-180.0931 182.0191,-190.6854 188.5734,-188.2275"/>
</g>
<!-- (outer)&#45;&gt;/polls/:poll_id -->
<g id="edge2" class="edge">
<title>(outer)&#45;&gt;/polls/:poll_id</title>
<path fill="none" stroke="#000000" d="M205.8413,-215.6001C207.8166,-205.2025 210.0123,-191.9346 211,-180 212.3197,-164.0545 212.3197,-159.9455 211,-144 210.3055,-135.6085 209.0138,-126.5578 207.6214,-118.3092"/>
<polygon fill="#000000" stroke="#000000" points="211.0544,-117.6235 205.8413,-108.3999 204.1647,-118.8612 211.0544,-117.6235"/>
</g>
</g>

<g transform="translate(0.000000,17.000000) scale(0.100000,-0.100000)"
fill="#000000" stroke="none">
<path d="M21 157 c-29 -35 -16 -97 20 -97 15 0 19 -5 15 -16 -3 -9 -6 -20 -6
-25 0 -5 -4 -9 -10 -9 -14 0 -12 27 3 33 6 3 2 6 -10 6 -30 1 -31 -35 -3 -44
28 -9 47 9 55 51 3 20 9 42 12 50 3 8 -1 14 -11 14 -9 0 -16 -8 -16 -19 0 -26
-15 -34 -30 -16 -13 16 -6 48 16 70 14 13 13 15 -4 15 -11 0 -25 -6 -31 -13z"/>
<path d="M80 150 c0 -13 5 -20 13 -17 6 2 12 10 12 17 0 7 -6 15 -12 18 -8 2
-13 -5 -13 -18z"/>
<path d="M347 164 c-13 -13 -7 -24 14 -24 11 0 19 5 17 12 -5 14 -22 21 -31
12z"/>
<path d="M103 85 c-9 -40 -8 -45 8 -45 13 0 19 9 21 33 2 24 7 31 21 29 10 -2
17 3 17 13 0 10 -9 15 -28 15 -26 0 -30 -5 -39 -45z"/>
<path d="M175 101 c-24 -48 -13 -59 64 -60 63 -1 69 1 79 25 15 31 15 64 1 64
-6 0 -8 -8 -5 -18 4 -10 -1 -27 -10 -38 -14 -18 -15 -17 -9 19 5 29 3 37 -9
37 -9 0 -18 -13 -22 -35 -3 -19 -10 -35 -14 -35 -4 0 -4 16 0 35 8 35 8 35
-26 35 -27 0 -36 -6 -49 -29z m47 -6 c-5 -28 -22 -44 -22 -21 0 21 11 46 20
46 4 0 5 -11 2 -25z"/>
<path d="M340 116 c0 -7 -3 -28 -6 -45 -6 -26 -3 -31 13 -31 10 0 25 6 32 12
11 10 13 10 7 1 -5 -9 3 -13 28 -13 25 0 36 4 36 15 0 8 -4 15 -10 15 -5 0
-10 -4 -10 -10 0 -5 -5 -10 -11 -10 -6 0 -2 12 9 28 36 51 36 52 -2 52 -25 0
-36 -4 -36 -15 0 -8 5 -15 10 -15 6 0 10 5 10 12 0 6 3 9 6 6 9 -10 -19 -46
-39 -52 -17 -4 -18 -1 -13 30 6 27 4 34 -9 34 -8 0 -15 -6 -15 -14z"/>
<path d="M472 118 c-7 -7 -12 -27 -12 -46 0 -30 2 -33 27 -30 17 2 32 12 39
27 7 13 18 28 26 33 10 8 9 8 -4 4 -12 -3 -18 0 -18 9 0 18 -41 20 -58 3z m29
-51 c-13 -13 -15 11 -4 40 7 16 8 15 11 -6 2 -13 -1 -28 -7 -34z"/>
</g>
</svg>
