<?xml version="1.0" encoding="UTF-8" standalone="no"?>
<!DOCTYPE svg PUBLIC "-//W3C//DTD SVG 1.1//EN"
 "http://www.w3.org/Graphics/SVG/1.1/DTD/svg11.dtd">
<!-- Generated by graphviz version 2.40.1 (20161225.0304)
 -->
<!-- Title: G Pages: 1 -->
<svg width="456pt" height="359pt"
 viewBox="0.00 0.00 456.00 359.00" xmlns="http://www.w3.org/2000/svg" xmlns:xlink="http://www.w3.org/1999/xlink">
<g id="graph0" class="graph" transform="scale(1 1) rotate(0) translate(4 355)">
<title>G</title>
<polygon fill="#ffffff" stroke="transparent" points="-4,4 -4,-355 452,-355 452,4 -4,4"/>
<g id="clust1" class="cluster">
<title>cluster1</title>
<polygon fill="none" stroke="#000000" points="8,-8 8,-185 440,-185 440,-8 8,-8"/>
</g>
<!-- / -->
<g id="node1" class="node">
<title>/</title>
<polygon fill="none" stroke="#000000" points="219,-264 165,-264 165,-228 219,-228 219,-264"/>
<text text-anchor="middle" x="192" y="-242.3" font-family="Times,serif" font-size="14.00" fill="#000000">/</text>
</g>
<!-- /polls/:poll_id -->
<g id="node2" class="node">
<title>/polls/:poll_id</title>
<polygon fill="none" stroke="#000000" points="288.5,-177 177.5,-177 177.5,-141 288.5,-141 288.5,-177"/>
<text text-anchor="middle" x="233" y="-155.3" font-family="Times,serif" font-size="14.00" fill="#000000">/polls/:poll_id</text>
</g>
<!-- /&#45;&gt;/polls/:poll_id -->
<g id="edge3" class="edge">
<title>/&#45;&gt;/polls/:poll_id</title>
<path fill="none" stroke="#000000" d="M200.4952,-227.9735C206.1575,-215.9585 213.7064,-199.9401 220.1041,-186.3646"/>
<polygon fill="#000000" stroke="#000000" points="223.4187,-187.5413 224.5157,-177.0034 217.0866,-184.5571 223.4187,-187.5413"/>
<text text-anchor="middle" x="219" y="-198.8" font-family="Times,serif" font-size="14.00" fill="#000000">3</text>
</g>
<!-- /polls/:poll_id/votes/new -->
<g id="node3" class="node">
<title>/polls/:poll_id/votes/new</title>
<polygon fill="none" stroke="#000000" stroke-dasharray="5,2" points="204,-52 16,-52 16,-16 204,-16 204,-52"/>
<text text-anchor="middle" x="110" y="-30.3" font-family="Times,serif" font-size="14.00" fill="#000000">/polls/:poll_id/votes/new</text>
</g>
<!-- /polls/:poll_id&#45;&gt;/polls/:poll_id/votes/new -->
<g id="edge4" class="edge">
<title>/polls/:poll_id&#45;&gt;/polls/:poll_id/votes/new</title>
<path fill="none" stroke="#000000" stroke-dasharray="1,5" d="M215.1147,-140.8239C194.0721,-119.4392 158.9944,-83.7911 135.2027,-59.6125"/>
<polygon fill="#000000" stroke="#000000" points="137.4154,-56.8711 127.9068,-52.198 132.4259,-61.7807 137.4154,-56.8711"/>
<text text-anchor="middle" x="182" y="-92.8" font-family="Times,serif" font-size="14.00" fill="#000000">4</text>
</g>
<!-- /polls/:poll_id/votes/:id/edit -->
<g id="node4" class="node">
<title>/polls/:poll_id/votes/:id/edit</title>
<polygon fill="none" stroke="#000000" stroke-dasharray="5,2" points="431.5,-52 222.5,-52 222.5,-16 431.5,-16 431.5,-52"/>
<text text-anchor="middle" x="327" y="-30.3" font-family="Times,serif" font-size="14.00" fill="#000000">/polls/:poll_id/votes/:id/edit</text>
</g>
<!-- /polls/:poll_id&#45;&gt;/polls/:poll_id/votes/:id/edit -->
<g id="edge6" class="edge">
<title>/polls/:poll_id&#45;&gt;/polls/:poll_id/votes/:id/edit</title>
<path fill="none" stroke="#000000" stroke-dasharray="1,5" d="M246.6684,-140.8239C262.6105,-119.6243 289.0937,-84.4073 307.2652,-60.2431"/>
<polygon fill="#000000" stroke="#000000" points="310.1022,-62.2939 313.3151,-52.198 304.5075,-58.0868 310.1022,-62.2939"/>
<text text-anchor="middle" x="289" y="-92.8" font-family="Times,serif" font-size="14.00" fill="#000000">6</text>
</g>
<!-- /polls/:poll_id/votes/new&#45;&gt;/polls/:poll_id -->
<g id="edge5" class="edge">
<title>/polls/:poll_id/votes/new&#45;&gt;/polls/:poll_id</title>
<path fill="none" stroke="#000000" stroke-dasharray="1,5" d="M117.8212,-52.1514C124.9358,-67.2254 136.524,-88.6134 151,-104 162.2735,-115.9826 176.6195,-126.711 190.1497,-135.4415"/>
<polygon fill="#000000" stroke="#000000" points="188.5446,-138.5651 198.8827,-140.8832 192.2466,-132.6241 188.5446,-138.5651"/>
<text text-anchor="middle" x="156" y="-92.8" font-family="Times,serif" font-size="14.00" fill="#000000">5</text>
</g>
<!-- /polls/:poll_id/votes/:id/edit&#45;&gt;/polls/:poll_id -->
<g id="edge7" class="edge">
<title>/polls/:poll_id/votes/:id/edit&#45;&gt;/polls/:poll_id</title>
<path fill="none" stroke="#000000" stroke-dasharray="1,5" d="M322.0936,-52.1677C317.4855,-67.054 309.5576,-88.1701 298,-104 289.7341,-115.3215 278.6731,-125.8022 268.0219,-134.5116"/>
<polygon fill="#000000" stroke="#000000" points="265.7078,-131.8788 260.0099,-140.811 270.0344,-137.3816 265.7078,-131.8788"/>
<text text-anchor="middle" x="312" y="-92.8" font-family="Times,serif" font-size="14.00" fill="#000000">7</text>
</g>
<!-- (outer) -->
<g id="node5" class="node">
<title>(outer)</title>
<ellipse fill="none" stroke="#000000" cx="223" cy="-333" rx="42.4939" ry="18"/>
<text text-anchor="middle" x="223" y="-329.3" font-family="Times,serif" font-size="14.00" fill="#000000">(outer)</text>
</g>
<!-- (outer)&#45;&gt;/ -->
<g id="edge1" class="edge">
<title>(outer)&#45;&gt;/</title>
<path fill="none" stroke="#000000" d="M216.5768,-314.9735C212.3371,-303.0751 206.6985,-287.2508 201.8917,-273.7606"/>
<polygon fill="#000000" stroke="#000000" points="205.0685,-272.2484 198.415,-264.0034 198.4746,-274.598 205.0685,-272.2484"/>
<text text-anchor="middle" x="214" y="-285.8" font-family="Times,serif" font-size="14.00" fill="#000000">1</text>
</g>
<!-- (outer)&#45;&gt;/polls/:poll_id -->
<g id="edge2" class="edge">
<title>(outer)&#45;&gt;/polls/:poll_id</title>
<path fill="none" stroke="#000000" d="M224.4386,-314.8485C225.5111,-300.9382 226.9636,-281.2641 228,-264 229.5552,-238.0934 230.9255,-208.5674 231.8364,-187.4378"/>
<polygon fill="#000000" stroke="#000000" points="235.3429,-187.3566 232.2694,-177.2173 228.3492,-187.0602 235.3429,-187.3566"/>
<text text-anchor="middle" x="234" y="-242.3" font-family="Times,serif" font-size="14.00" fill="#000000">2</text>
</g>
</g>

<g transform="translate(0.000000,17.000000) scale(0.100000,-0.100000)"
fill="#000000" stroke="none">
<path d="M21 157 c-29 -35 -16 -97 20 -97 15 0 19 -5 15 -16 -3 -9 -6 -20 -6
-25 0 -5 -4 -9 -10 -9 -14 0 -12 27 3 33 6 3 2 6 -10 6 -30 1 -31 -35 -3 -44
28 -9 47 9 55 51 3 20 9 42 12 50 3 8 -1 14 -11 14 -9 0 -16 -8 -16 -19 0 -26
-15 -34 -30 -16 -13 16 -6 48 16 70 14 13 13 15 -4 15 -11 0 -25 -6 -31 -13z"/>
<path d="M80 150 c0 -13 5 -20 13 -17 6 2 12 10 12 17 0 7 -6 15 -12 18 -8 2
-13 -5 -13 -18z"/>
<path d="M347 164 c-13 -13 -7 -24 14 -24 11 0 19 5 17 12 -5 14 -22 21 -31
12z"/>
<path d="M103 85 c-9 -40 -8 -45 8 -45 13 0 19 9 21 33 2 24 7 31 21 29 10 -2
17 3 17 13 0 10 -9 15 -28 15 -26 0 -30 -5 -39 -45z"/>
<path d="M175 101 c-24 -48 -13 -59 64 -60 63 -1 69 1 79 25 15 31 15 64 1 64
-6 0 -8 -8 -5 -18 4 -10 -1 -27 -10 -38 -14 -18 -15 -17 -9 19 5 29 3 37 -9
37 -9 0 -18 -13 -22 -35 -3 -19 -10 -35 -14 -35 -4 0 -4 16 0 35 8 35 8 35
-26 35 -27 0 -36 -6 -49 -29z m47 -6 c-5 -28 -22 -44 -22 -21 0 21 11 46 20
46 4 0 5 -11 2 -25z"/>
<path d="M340 116 c0 -7 -3 -28 -6 -45 -6 -26 -3 -31 13 -31 10 0 25 6 32 12
11 10 13 10 7 1 -5 -9 3 -13 28 -13 25 0 36 4 36 15 0 8 -4 15 -10 15 -5 0
-10 -4 -10 -10 0 -5 -5 -10 -11 -10 -6 0 -2 12 9 28 36 51 36 52 -2 52 -25 0
-36 -4 -36 -15 0 -8 5 -15 10 -15 6 0 10 5 10 12 0 6 3 9 6 6 9 -10 -19 -46
-39 -52 -17 -4 -18 -1 -13 30 6 27 4 34 -9 34 -8 0 -15 -6 -15 -14z"/>
<path d="M472 118 c-7 -7 -12 -27 -12 -46 0 -30 2 -33 27 -30 17 2 32 12 39
27 7 13 18 28 26 33 10 8 9 8 -4 4 -12 -3 -18 0 -18 9 0 18 -41 20 -58 3z m29
-51 c-13 -13 -15 11 -4 40 7 16 8 15 11 -6 2 -13 -1 -28 -7 -34z"/>
</g>
</svg>
