<?xml version="1.0" encoding="UTF-8" standalone="no"?>
<!DOCTYPE svg PUBLIC "-//W3C//DTD SVG 1.1//EN"
 "http://www.w3.org/Graphics/SVG/1.1/DTD/svg11.dtd">
<!-- Generated by graphviz version 2.40.1 (20161225.0304)
 -->
<!-- Title: G Pages: 1 -->
<svg width="424pt" height="305pt"
 viewBox="0.00 0.00 423.50 305.00" xmlns="http://www.w3.org/2000/svg" xmlns:xlink="http://www.w3.org/1999/xlink">
<g id="graph0" class="graph" transform="scale(1 1) rotate(0) translate(4 301)">
<title>G</title>
<polygon fill="#ffffff" stroke="transparent" points="-4,4 -4,-301 419.5,-301 419.5,4 -4,4"/>
<!-- / -->
<g id="node1" class="node">
<title>/</title>
<polygon fill="none" stroke="#000000" points="235,-210 181,-210 181,-174 235,-174 235,-210"/>
<text text-anchor="middle" x="208" y="-188.3" font-family="Times,serif" font-size="14.00" fill="#000000">/</text>
</g>
<!-- /polls/:poll_id -->
<g id="node2" class="node">
<title>/polls/:poll_id</title>
<polygon fill="none" stroke="#000000" points="294.5,-123 183.5,-123 183.5,-87 294.5,-87 294.5,-123"/>
<text text-anchor="middle" x="239" y="-101.3" font-family="Times,serif" font-size="14.00" fill="#000000">/polls/:poll_id</text>
</g>
<!-- /&#45;&gt;/polls/:poll_id -->
<g id="edge3" class="edge">
<title>/&#45;&gt;/polls/:poll_id</title>
<path fill="none" stroke="#000000" d="M214.4232,-173.9735C218.6629,-162.0751 224.3015,-146.2508 229.1083,-132.7606"/>
<polygon fill="#000000" stroke="#000000" points="232.5254,-133.598 232.585,-123.0034 225.9315,-131.2484 232.5254,-133.598"/>
<text text-anchor="middle" x="231" y="-144.8" font-family="Times,serif" font-size="14.00" fill="#000000">3</text>
</g>
<!-- /polls/:poll_id/votes/new -->
<g id="node3" class="node">
<title>/polls/:poll_id/votes/new</title>
<polygon fill="none" stroke="#000000" points="188,-36 0,-36 0,0 188,0 188,-36"/>
<text text-anchor="middle" x="94" y="-14.3" font-family="Times,serif" font-size="14.00" fill="#000000">/polls/:poll_id/votes/new</text>
</g>
<!-- /polls/:poll_id&#45;&gt;/polls/:poll_id/votes/new -->
<g id="edge4" class="edge">
<title>/polls/:poll_id&#45;&gt;/polls/:poll_id/votes/new</title>
<path fill="none" stroke="#000000" d="M208.9559,-86.9735C186.8894,-73.7336 156.721,-55.6326 132.8263,-41.2958"/>
<polygon fill="#000000" stroke="#000000" points="134.3813,-38.1471 124.0056,-36.0034 130.7798,-44.1496 134.3813,-38.1471"/>
<text text-anchor="middle" x="181" y="-57.8" font-family="Times,serif" font-size="14.00" fill="#000000">4</text>
</g>
<!-- /polls/:poll_id/votes/:id/edit -->
<g id="node4" class="node">
<title>/polls/:poll_id/votes/:id/edit</title>
<polygon fill="none" stroke="#000000" points="415.5,-36 206.5,-36 206.5,0 415.5,0 415.5,-36"/>
<text text-anchor="middle" x="311" y="-14.3" font-family="Times,serif" font-size="14.00" fill="#000000">/polls/:poll_id/votes/:id/edit</text>
</g>
<!-- /polls/:poll_id&#45;&gt;/polls/:poll_id/votes/:id/edit -->
<g id="edge6" class="edge">
<title>/polls/:poll_id&#45;&gt;/polls/:poll_id/votes/:id/edit</title>
<path fill="none" stroke="#000000" d="M248.8175,-86.7008C254.6393,-76.5926 262.5237,-64.0804 271,-54 274.1417,-50.2637 277.6673,-46.553 281.2891,-43.0129"/>
<polygon fill="#000000" stroke="#000000" points="283.8449,-45.4151 288.7665,-36.0328 279.0682,-40.2981 283.8449,-45.4151"/>
<text text-anchor="middle" x="276" y="-57.8" font-family="Times,serif" font-size="14.00" fill="#000000">6</text>
</g>
<!-- /polls/:poll_id/votes/new&#45;&gt;/polls/:poll_id -->
<g id="edge5" class="edge">
<title>/polls/:poll_id/votes/new&#45;&gt;/polls/:poll_id</title>
<path fill="none" stroke="#000000" d="M154.6464,-36.0376C166.8466,-40.9417 179.2202,-46.9053 190,-54 200.4713,-60.8917 210.3838,-70.3978 218.5178,-79.3369"/>
<polygon fill="#000000" stroke="#000000" points="215.9646,-81.7344 225.1774,-86.9666 221.2383,-77.1312 215.9646,-81.7344"/>
<text text-anchor="middle" x="214" y="-57.8" font-family="Times,serif" font-size="14.00" fill="#000000">5</text>
</g>
<!-- /polls/:poll_id/votes/:id/edit&#45;&gt;/polls/:poll_id -->
<g id="edge7" class="edge">
<title>/polls/:poll_id/votes/:id/edit&#45;&gt;/polls/:poll_id</title>
<path fill="none" stroke="#000000" d="M302.0757,-36.4194C296.7053,-46.5653 289.308,-59.075 281,-69 277.8523,-72.7603 274.2893,-76.4528 270.6019,-79.955"/>
<polygon fill="#000000" stroke="#000000" points="268.0454,-77.547 262.9516,-86.837 272.7269,-82.7512 268.0454,-77.547"/>
<text text-anchor="middle" x="296" y="-57.8" font-family="Times,serif" font-size="14.00" fill="#000000">7</text>
</g>
<!-- (outer) -->
<g id="node5" class="node">
<title>(outer)</title>
<ellipse fill="none" stroke="#000000" cx="239" cy="-279" rx="42.4939" ry="18"/>
<text text-anchor="middle" x="239" y="-275.3" font-family="Times,serif" font-size="14.00" fill="#000000">(outer)</text>
</g>
<!-- (outer)&#45;&gt;/ -->
<g id="edge1" class="edge">
<title>(outer)&#45;&gt;/</title>
<path fill="none" stroke="#000000" d="M232.5768,-260.9735C228.3371,-249.0751 222.6985,-233.2508 217.8917,-219.7606"/>
<polygon fill="#000000" stroke="#000000" points="221.0685,-218.2484 214.415,-210.0034 214.4746,-220.598 221.0685,-218.2484"/>
<text text-anchor="middle" x="231" y="-231.8" font-family="Times,serif" font-size="14.00" fill="#000000">1</text>
</g>
<!-- (outer)&#45;&gt;/polls/:poll_id -->
<g id="edge2" class="edge">
<title>(outer)&#45;&gt;/polls/:poll_id</title>
<path fill="none" stroke="#000000" d="M240.6746,-260.8598C241.8707,-246.9555 243.3746,-227.2839 244,-210 244.5786,-194.0105 244.5786,-189.9895 244,-174 243.5163,-160.632 242.5071,-145.8356 241.5212,-133.3841"/>
<polygon fill="#000000" stroke="#000000" points="244.9864,-132.8179 240.6746,-123.1402 238.0102,-133.3945 244.9864,-132.8179"/>
<text text-anchor="middle" x="249" y="-188.3" font-family="Times,serif" font-size="14.00" fill="#000000">2</text>
</g>
</g>

<g transform="translate(0.000000,17.000000) scale(0.100000,-0.100000)"
fill="#000000" stroke="none">
<path d="M21 157 c-29 -35 -16 -97 20 -97 15 0 19 -5 15 -16 -3 -9 -6 -20 -6
-25 0 -5 -4 -9 -10 -9 -14 0 -12 27 3 33 6 3 2 6 -10 6 -30 1 -31 -35 -3 -44
28 -9 47 9 55 51 3 20 9 42 12 50 3 8 -1 14 -11 14 -9 0 -16 -8 -16 -19 0 -26
-15 -34 -30 -16 -13 16 -6 48 16 70 14 13 13 15 -4 15 -11 0 -25 -6 -31 -13z"/>
<path d="M80 150 c0 -13 5 -20 13 -17 6 2 12 10 12 17 0 7 -6 15 -12 18 -8 2
-13 -5 -13 -18z"/>
<path d="M347 164 c-13 -13 -7 -24 14 -24 11 0 19 5 17 12 -5 14 -22 21 -31
12z"/>
<path d="M103 85 c-9 -40 -8 -45 8 -45 13 0 19 9 21 33 2 24 7 31 21 29 10 -2
17 3 17 13 0 10 -9 15 -28 15 -26 0 -30 -5 -39 -45z"/>
<path d="M175 101 c-24 -48 -13 -59 64 -60 63 -1 69 1 79 25 15 31 15 64 1 64
-6 0 -8 -8 -5 -18 4 -10 -1 -27 -10 -38 -14 -18 -15 -17 -9 19 5 29 3 37 -9
37 -9 0 -18 -13 -22 -35 -3 -19 -10 -35 -14 -35 -4 0 -4 16 0 35 8 35 8 35
-26 35 -27 0 -36 -6 -49 -29z m47 -6 c-5 -28 -22 -44 -22 -21 0 21 11 46 20
46 4 0 5 -11 2 -25z"/>
<path d="M340 116 c0 -7 -3 -28 -6 -45 -6 -26 -3 -31 13 -31 10 0 25 6 32 12
11 10 13 10 7 1 -5 -9 3 -13 28 -13 25 0 36 4 36 15 0 8 -4 15 -10 15 -5 0
-10 -4 -10 -10 0 -5 -5 -10 -11 -10 -6 0 -2 12 9 28 36 51 36 52 -2 52 -25 0
-36 -4 -36 -15 0 -8 5 -15 10 -15 6 0 10 5 10 12 0 6 3 9 6 6 9 -10 -19 -46
-39 -52 -17 -4 -18 -1 -13 30 6 27 4 34 -9 34 -8 0 -15 -6 -15 -14z"/>
<path d="M472 118 c-7 -7 -12 -27 -12 -46 0 -30 2 -33 27 -30 17 2 32 12 39
27 7 13 18 28 26 33 10 8 9 8 -4 4 -12 -3 -18 0 -18 9 0 18 -41 20 -58 3z m29
-51 c-13 -13 -15 11 -4 40 7 16 8 15 11 -6 2 -13 -1 -28 -7 -34z"/>
</g>
</svg>
